<?xml version="1.0" encoding="UTF-8"?>
<!-- Generated by jsxcad -->
<!DOCTYPE svg PUBLIC "-//W3C//DTD SVG 1.1 Tiny//EN" "http://www.w3.org/Graphics/SVG/1.1/DTD/svg11-tiny.dtd">
<svg baseProfile="tiny" height="10 mm" width="25 mm" viewBox="0 0 25 10" version="1.1" stroke="black" stroke-width=".1" fill="none" xmlns="http://www.w3.org/2000/svg">
<path d="M9.53366 7.5 L8.83551 7.5 L8.02576 7.5 L7.06715 7.5 L5.90439 7.5 L4.4515 7.5 L2.56697 7.5 L0 7.5 L0 2.5 L1.61705 2.5 L2.99853 2.5 L4.19816 2.5 L5.25475 2.5 L6.19699 2.5 L6.34985 2.5 L15 2.5 L15 1.66667 L15 0 L20 0 L25 0 L25 1.66667 L25 2.5 L25 5 L25 5.13501 L25 5.40503 L25 7.5 L25 8.33333 L25 10 L20 10 L15 10 L15 8.33333 L15 7.5 L14.78679 7.5 L14.46898 7.5 L14.15077 7.5 L13.82909 7.5 L13.50088 7.5 L13.16293 7.5 L12.81175 7.5 L12.44342 7.5 L12.05337 7.5 L11.63617 7.5 L11.18519 7.5 L10.6921 7.5 L10.14625 7.5 z"/>
</svg>