solid JSxCAD
facet normal 0 -1 0
outer loop
vertex 5 -8.66025 -5
vertex 5 -8.66025 5
vertex -5 -8.66025 -5
endloop
endfacet
facet normal 0 -1 0
outer loop
vertex -5 -8.66025 -5
vertex 5 -8.66025 5
vertex -5 -8.66025 5
endloop
endfacet
facet normal -0.8660253028382761 -0.5000001748438417 0
outer loop
vertex -5 -8.66025 -5
vertex -5 -8.66025 5
vertex -10 0 -5
endloop
endfacet
facet normal -0.8660253028382761 -0.5000001748438417 0
outer loop
vertex -10 0 -5
vertex -5 -8.66025 5
vertex -10 0 5
endloop
endfacet
facet normal -0.8660253028382761 0.5000001748438417 0
outer loop
vertex -10 0 -5
vertex -10 0 5
vertex -5 8.66025 -5
endloop
endfacet
facet normal -0.8660253028382761 0.5000001748438417 0
outer loop
vertex -5 8.66025 -5
vertex -10 0 5
vertex -5 8.66025 5
endloop
endfacet
facet normal 0 1 0
outer loop
vertex -5 8.66025 -5
vertex -5 8.66025 5
vertex 5 8.66025 -5
endloop
endfacet
facet normal 0 1 0
outer loop
vertex 5 8.66025 -5
vertex -5 8.66025 5
vertex 5 8.66025 5
endloop
endfacet
facet normal 0.8660253028382761 0.5000001748438417 0
outer loop
vertex 5 8.66025 -5
vertex 5 8.66025 5
vertex 10 0 -5
endloop
endfacet
facet normal 0.8660253028382761 0.5000001748438417 0
outer loop
vertex 10 0 -5
vertex 5 8.66025 5
vertex 10 0 5
endloop
endfacet
facet normal 0.8660253028382761 -0.5000001748438417 0
outer loop
vertex 10 0 -5
vertex 10 0 5
vertex 5 -8.66025 -5
endloop
endfacet
facet normal 0.8660253028382761 -0.5000001748438417 0
outer loop
vertex 5 -8.66025 -5
vertex 10 0 5
vertex 5 -8.66025 5
endloop
endfacet
facet normal 0 0 1
outer loop
vertex 10 0 5
vertex 5 8.66025 5
vertex -5 8.66025 5
endloop
endfacet
facet normal 0 0 1
outer loop
vertex 10 0 5
vertex -5 8.66025 5
vertex -10 0 5
endloop
endfacet
facet normal 0 0 1
outer loop
vertex 10 0 5
vertex -10 0 5
vertex -5 -8.66025 5
endloop
endfacet
facet normal 0 0 1
outer loop
vertex 10 0 5
vertex -5 -8.66025 5
vertex 5 -8.66025 5
endloop
endfacet
facet normal 0 0 -1
outer loop
vertex 5 -8.66025 -5
vertex -5 -8.66025 -5
vertex -10 0 -5
endloop
endfacet
facet normal 0 0 -1
outer loop
vertex 5 -8.66025 -5
vertex -10 0 -5
vertex -5 8.66025 -5
endloop
endfacet
facet normal 0 0 -1
outer loop
vertex 5 -8.66025 -5
vertex -5 8.66025 -5
vertex 5 8.66025 -5
endloop
endfacet
facet normal 0 0 -1
outer loop
vertex 5 -8.66025 -5
vertex 5 8.66025 -5
vertex 10 0 -5
endloop
endfacet
endsolid JSxCAD
