solid JSxCAD
facet normal 0.9884690704933199 -0.1514229067151734 0
outer loop
vertex 9.94869 -1.01168 -2.5
vertex 9.94869 -1.01168 2.5
vertex 9.7953 -2.01299 -2.5
endloop
endfacet
facet normal 0.9884690704933199 -0.1514229067151734 0
outer loop
vertex 9.7953 -2.01299 -2.5
vertex 9.94869 -1.01168 2.5
vertex 9.7953 -2.01299 2.5
endloop
endfacet
facet normal 0.9680759900255813 -0.2506568920576305 0
outer loop
vertex 9.7953 -2.01299 -2.5
vertex 9.7953 -2.01299 2.5
vertex 9.54139 -2.99363 -2.5
endloop
endfacet
facet normal 0.9680759900255813 -0.2506568920576305 0
outer loop
vertex 9.54139 -2.99363 -2.5
vertex 9.7953 -2.01299 2.5
vertex 9.54139 -2.99363 2.5
endloop
endfacet
facet normal 0.9377538811078928 -0.34730053047336973 0
outer loop
vertex 9.54139 -2.99363 -2.5
vertex 9.54139 -2.99363 2.5
vertex 9.18958 -3.94356 -2.5
endloop
endfacet
facet normal 0.9377538811078928 -0.34730053047336973 0
outer loop
vertex 9.18958 -3.94356 -2.5
vertex 9.54139 -2.99363 2.5
vertex 9.18958 -3.94356 2.5
endloop
endfacet
facet normal 0.8978050968886259 -0.4403930153860359 0
outer loop
vertex 9.18958 -3.94356 -2.5
vertex 9.18958 -3.94356 2.5
vertex 8.74347 -4.85302 -2.5
endloop
endfacet
facet normal 0.8978050968886259 -0.4403930153860359 0
outer loop
vertex 8.74347 -4.85302 -2.5
vertex 9.18958 -3.94356 2.5
vertex 8.74347 -4.85302 2.5
endloop
endfacet
facet normal 0.848639903597774 -0.5289709954445148 0
outer loop
vertex 8.74347 -4.85302 -2.5
vertex 8.74347 -4.85302 2.5
vertex 8.20763 -5.71268 -2.5
endloop
endfacet
facet normal 0.848639903597774 -0.5289709954445148 0
outer loop
vertex 8.20763 -5.71268 -2.5
vertex 8.74347 -4.85302 2.5
vertex 8.20763 -5.71268 2.5
endloop
endfacet
facet normal 0.79077626903439 -0.6121052951347914 0
outer loop
vertex 8.20763 -5.71268 -2.5
vertex 8.20763 -5.71268 2.5
vertex 7.58758 -6.51372 -2.5
endloop
endfacet
facet normal 0.79077626903439 -0.6121052951347914 0
outer loop
vertex 7.58758 -6.51372 -2.5
vertex 8.20763 -5.71268 2.5
vertex 7.58758 -6.51372 2.5
endloop
endfacet
facet normal 0.7247970499683982 -0.6889624346487312 0
outer loop
vertex 7.58758 -6.51372 -2.5
vertex 7.58758 -6.51372 2.5
vertex 6.88967 -7.24793 -2.5
endloop
endfacet
facet normal 0.7247970499683982 -0.6889624346487312 0
outer loop
vertex 6.88967 -7.24793 -2.5
vertex 7.58758 -6.51372 2.5
vertex 6.88967 -7.24793 2.5
endloop
endfacet
facet normal 0.6513724588664768 -0.7587581431722761 0
outer loop
vertex 6.88967 -7.24793 -2.5
vertex 6.88967 -7.24793 2.5
vertex 6.12106 -7.90776 -2.5
endloop
endfacet
facet normal 0.6513724588664768 -0.7587581431722761 0
outer loop
vertex 6.12106 -7.90776 -2.5
vertex 6.88967 -7.24793 2.5
vertex 6.12106 -7.90776 2.5
endloop
endfacet
facet normal 0.5712646246981277 -0.820765940185451 0
outer loop
vertex 6.12106 -7.90776 -2.5
vertex 6.12106 -7.90776 2.5
vertex 5.28964 -8.48644 -2.5
endloop
endfacet
facet normal 0.5712646246981277 -0.820765940185451 0
outer loop
vertex 5.28964 -8.48644 -2.5
vertex 6.12106 -7.90776 2.5
vertex 5.28964 -8.48644 2.5
endloop
endfacet
facet normal 0.485306788964283 -0.8743439372381883 0
outer loop
vertex 5.28964 -8.48644 -2.5
vertex 5.28964 -8.48644 2.5
vertex 4.40394 -8.97805 -2.5
endloop
endfacet
facet normal 0.485306788964283 -0.8743439372381883 0
outer loop
vertex 4.40394 -8.97805 -2.5
vertex 5.28964 -8.48644 2.5
vertex 4.40394 -8.97805 2.5
endloop
endfacet
facet normal 0.39435055267252495 -0.9189600870586676 0
outer loop
vertex 4.40394 -8.97805 -2.5
vertex 4.40394 -8.97805 2.5
vertex 3.47305 -9.37752 -2.5
endloop
endfacet
facet normal 0.39435055267252495 -0.9189600870586676 0
outer loop
vertex 3.47305 -9.37752 -2.5
vertex 4.40394 -8.97805 2.5
vertex 3.47305 -9.37752 2.5
endloop
endfacet
facet normal 0.29936527420340614 -0.9541385814446032 0
outer loop
vertex 3.47305 -9.37752 -2.5
vertex 3.47305 -9.37752 2.5
vertex 2.50653 -9.68077 -2.5
endloop
endfacet
facet normal 0.29936527420340614 -0.9541385814446032 0
outer loop
vertex 2.50653 -9.68077 -2.5
vertex 3.47305 -9.37752 2.5
vertex 2.50653 -9.68077 2.5
endloop
endfacet
facet normal 0.20129609662326395 -0.9795304392841692 0
outer loop
vertex 2.50653 -9.68077 -2.5
vertex 2.50653 -9.68077 2.5
vertex 1.51428 -9.88468 -2.5
endloop
endfacet
facet normal 0.20129609662326395 -0.9795304392841692 0
outer loop
vertex 1.51428 -9.88468 -2.5
vertex 2.50653 -9.68077 2.5
vertex 1.51428 -9.88468 2.5
endloop
endfacet
facet normal 0.10117591739398024 -0.9948685509852477 0
outer loop
vertex 1.51428 -9.88468 -2.5
vertex 1.51428 -9.88468 2.5
vertex 0.50649 -9.98717 -2.5
endloop
endfacet
facet normal 0.10117591739398024 -0.9948685509852477 0
outer loop
vertex 0.50649 -9.98717 -2.5
vertex 1.51428 -9.88468 2.5
vertex 0.50649 -9.98717 2.5
endloop
endfacet
facet normal 0 -1 0
outer loop
vertex 0.50649 -9.98717 -2.5
vertex 0.50649 -9.98717 2.5
vertex -0.50649 -9.98717 -2.5
endloop
endfacet
facet normal 0 -1 0
outer loop
vertex -0.50649 -9.98717 -2.5
vertex 0.50649 -9.98717 2.5
vertex -0.50649 -9.98717 2.5
endloop
endfacet
facet normal -0.10117591739398024 -0.9948685509852477 0
outer loop
vertex -0.50649 -9.98717 -2.5
vertex -0.50649 -9.98717 2.5
vertex -1.51428 -9.88468 -2.5
endloop
endfacet
facet normal -0.10117591739398024 -0.9948685509852477 0
outer loop
vertex -1.51428 -9.88468 -2.5
vertex -0.50649 -9.98717 2.5
vertex -1.51428 -9.88468 2.5
endloop
endfacet
facet normal -0.20129609662326395 -0.9795304392841692 0
outer loop
vertex -1.51428 -9.88468 -2.5
vertex -1.51428 -9.88468 2.5
vertex -2.50653 -9.68077 -2.5
endloop
endfacet
facet normal -0.20129609662326395 -0.9795304392841692 0
outer loop
vertex -2.50653 -9.68077 -2.5
vertex -1.51428 -9.88468 2.5
vertex -2.50653 -9.68077 2.5
endloop
endfacet
facet normal -0.29936527420340614 -0.9541385814446032 0
outer loop
vertex -2.50653 -9.68077 -2.5
vertex -2.50653 -9.68077 2.5
vertex -3.47305 -9.37752 -2.5
endloop
endfacet
facet normal -0.29936527420340614 -0.9541385814446032 0
outer loop
vertex -3.47305 -9.37752 -2.5
vertex -2.50653 -9.68077 2.5
vertex -3.47305 -9.37752 2.5
endloop
endfacet
facet normal -0.39435055267252495 -0.9189600870586676 0
outer loop
vertex -3.47305 -9.37752 -2.5
vertex -3.47305 -9.37752 2.5
vertex -4.40394 -8.97805 -2.5
endloop
endfacet
facet normal -0.39435055267252495 -0.9189600870586676 0
outer loop
vertex -4.40394 -8.97805 -2.5
vertex -3.47305 -9.37752 2.5
vertex -4.40394 -8.97805 2.5
endloop
endfacet
facet normal -0.485306788964283 -0.8743439372381883 0
outer loop
vertex -4.40394 -8.97805 -2.5
vertex -4.40394 -8.97805 2.5
vertex -5.28964 -8.48644 -2.5
endloop
endfacet
facet normal -0.485306788964283 -0.8743439372381883 0
outer loop
vertex -5.28964 -8.48644 -2.5
vertex -4.40394 -8.97805 2.5
vertex -5.28964 -8.48644 2.5
endloop
endfacet
facet normal -0.5712646246981277 -0.820765940185451 0
outer loop
vertex -5.28964 -8.48644 -2.5
vertex -5.28964 -8.48644 2.5
vertex -6.12106 -7.90776 -2.5
endloop
endfacet
facet normal -0.5712646246981277 -0.820765940185451 0
outer loop
vertex -6.12106 -7.90776 -2.5
vertex -5.28964 -8.48644 2.5
vertex -6.12106 -7.90776 2.5
endloop
endfacet
facet normal -0.6513724588664768 -0.7587581431722761 0
outer loop
vertex -6.12106 -7.90776 -2.5
vertex -6.12106 -7.90776 2.5
vertex -6.88967 -7.24793 -2.5
endloop
endfacet
facet normal -0.6513724588664768 -0.7587581431722761 0
outer loop
vertex -6.88967 -7.24793 -2.5
vertex -6.12106 -7.90776 2.5
vertex -6.88967 -7.24793 2.5
endloop
endfacet
facet normal -0.7247970499683982 -0.6889624346487312 0
outer loop
vertex -6.88967 -7.24793 -2.5
vertex -6.88967 -7.24793 2.5
vertex -7.58758 -6.51372 -2.5
endloop
endfacet
facet normal -0.7247970499683982 -0.6889624346487312 0
outer loop
vertex -7.58758 -6.51372 -2.5
vertex -6.88967 -7.24793 2.5
vertex -7.58758 -6.51372 2.5
endloop
endfacet
facet normal -0.79077626903439 -0.6121052951347914 0
outer loop
vertex -7.58758 -6.51372 -2.5
vertex -7.58758 -6.51372 2.5
vertex -8.20763 -5.71268 -2.5
endloop
endfacet
facet normal -0.79077626903439 -0.6121052951347914 0
outer loop
vertex -8.20763 -5.71268 -2.5
vertex -7.58758 -6.51372 2.5
vertex -8.20763 -5.71268 2.5
endloop
endfacet
facet normal -0.848639903597774 -0.5289709954445148 0
outer loop
vertex -8.20763 -5.71268 -2.5
vertex -8.20763 -5.71268 2.5
vertex -8.74347 -4.85302 -2.5
endloop
endfacet
facet normal -0.848639903597774 -0.5289709954445148 0
outer loop
vertex -8.74347 -4.85302 -2.5
vertex -8.20763 -5.71268 2.5
vertex -8.74347 -4.85302 2.5
endloop
endfacet
facet normal -0.8978050968886259 -0.4403930153860359 0
outer loop
vertex -8.74347 -4.85302 -2.5
vertex -8.74347 -4.85302 2.5
vertex -9.18958 -3.94356 -2.5
endloop
endfacet
facet normal -0.8978050968886259 -0.4403930153860359 0
outer loop
vertex -9.18958 -3.94356 -2.5
vertex -8.74347 -4.85302 2.5
vertex -9.18958 -3.94356 2.5
endloop
endfacet
facet normal -0.9377538811078928 -0.34730053047336973 0
outer loop
vertex -9.18958 -3.94356 -2.5
vertex -9.18958 -3.94356 2.5
vertex -9.54139 -2.99363 -2.5
endloop
endfacet
facet normal -0.9377538811078928 -0.34730053047336973 0
outer loop
vertex -9.54139 -2.99363 -2.5
vertex -9.18958 -3.94356 2.5
vertex -9.54139 -2.99363 2.5
endloop
endfacet
facet normal -0.9680759900255813 -0.2506568920576305 0
outer loop
vertex -9.54139 -2.99363 -2.5
vertex -9.54139 -2.99363 2.5
vertex -9.7953 -2.01299 -2.5
endloop
endfacet
facet normal -0.9680759900255813 -0.2506568920576305 0
outer loop
vertex -9.7953 -2.01299 -2.5
vertex -9.54139 -2.99363 2.5
vertex -9.7953 -2.01299 2.5
endloop
endfacet
facet normal -0.9884690704933199 -0.1514229067151734 0
outer loop
vertex -9.7953 -2.01299 -2.5
vertex -9.7953 -2.01299 2.5
vertex -9.94869 -1.01168 -2.5
endloop
endfacet
facet normal -0.9884690704933199 -0.1514229067151734 0
outer loop
vertex -9.94869 -1.01168 -2.5
vertex -9.7953 -2.01299 2.5
vertex -9.94869 -1.01168 2.5
endloop
endfacet
facet normal -0.9987163375223298 -0.0506525139157358 0
outer loop
vertex -9.94869 -1.01168 -2.5
vertex -9.94869 -1.01168 2.5
vertex -10 0 -2.5
endloop
endfacet
facet normal -0.9987163375223298 -0.0506525139157358 0
outer loop
vertex -10 0 -2.5
vertex -9.94869 -1.01168 2.5
vertex -10 0 2.5
endloop
endfacet
facet normal -0.9987163375223298 0.0506525139157358 0
outer loop
vertex -10 0 -2.5
vertex -10 0 2.5
vertex -9.94869 1.01168 -2.5
endloop
endfacet
facet normal -0.9987163375223298 0.0506525139157358 0
outer loop
vertex -9.94869 1.01168 -2.5
vertex -10 0 2.5
vertex -9.94869 1.01168 2.5
endloop
endfacet
facet normal -0.9884690704933199 0.1514229067151734 0
outer loop
vertex -9.94869 1.01168 -2.5
vertex -9.94869 1.01168 2.5
vertex -9.7953 2.01299 -2.5
endloop
endfacet
facet normal -0.9884690704933199 0.1514229067151734 0
outer loop
vertex -9.7953 2.01299 -2.5
vertex -9.94869 1.01168 2.5
vertex -9.7953 2.01299 2.5
endloop
endfacet
facet normal -0.9680759900255813 0.2506568920576305 0
outer loop
vertex -9.7953 2.01299 -2.5
vertex -9.7953 2.01299 2.5
vertex -9.54139 2.99363 -2.5
endloop
endfacet
facet normal -0.9680759900255813 0.2506568920576305 0
outer loop
vertex -9.54139 2.99363 -2.5
vertex -9.7953 2.01299 2.5
vertex -9.54139 2.99363 2.5
endloop
endfacet
facet normal -0.9377538811078928 0.34730053047336973 0
outer loop
vertex -9.54139 2.99363 -2.5
vertex -9.54139 2.99363 2.5
vertex -9.18958 3.94356 -2.5
endloop
endfacet
facet normal -0.9377538811078928 0.34730053047336973 0
outer loop
vertex -9.18958 3.94356 -2.5
vertex -9.54139 2.99363 2.5
vertex -9.18958 3.94356 2.5
endloop
endfacet
facet normal -0.8978050968886259 0.4403930153860359 0
outer loop
vertex -9.18958 3.94356 -2.5
vertex -9.18958 3.94356 2.5
vertex -8.74347 4.85302 -2.5
endloop
endfacet
facet normal -0.8978050968886259 0.4403930153860359 0
outer loop
vertex -8.74347 4.85302 -2.5
vertex -9.18958 3.94356 2.5
vertex -8.74347 4.85302 2.5
endloop
endfacet
facet normal -0.848639903597774 0.5289709954445148 0
outer loop
vertex -8.74347 4.85302 -2.5
vertex -8.74347 4.85302 2.5
vertex -8.20763 5.71268 -2.5
endloop
endfacet
facet normal -0.848639903597774 0.5289709954445148 0
outer loop
vertex -8.20763 5.71268 -2.5
vertex -8.74347 4.85302 2.5
vertex -8.20763 5.71268 2.5
endloop
endfacet
facet normal -0.79077626903439 0.6121052951347914 0
outer loop
vertex -8.20763 5.71268 -2.5
vertex -8.20763 5.71268 2.5
vertex -7.58758 6.51372 -2.5
endloop
endfacet
facet normal -0.79077626903439 0.6121052951347914 0
outer loop
vertex -7.58758 6.51372 -2.5
vertex -8.20763 5.71268 2.5
vertex -7.58758 6.51372 2.5
endloop
endfacet
facet normal -0.7247970499683982 0.6889624346487312 0
outer loop
vertex -7.58758 6.51372 -2.5
vertex -7.58758 6.51372 2.5
vertex -6.88967 7.24793 -2.5
endloop
endfacet
facet normal -0.7247970499683982 0.6889624346487312 0
outer loop
vertex -6.88967 7.24793 -2.5
vertex -7.58758 6.51372 2.5
vertex -6.88967 7.24793 2.5
endloop
endfacet
facet normal -0.6513724588664768 0.7587581431722761 0
outer loop
vertex -6.88967 7.24793 -2.5
vertex -6.88967 7.24793 2.5
vertex -6.12106 7.90776 -2.5
endloop
endfacet
facet normal -0.6513724588664768 0.7587581431722761 0
outer loop
vertex -6.12106 7.90776 -2.5
vertex -6.88967 7.24793 2.5
vertex -6.12106 7.90776 2.5
endloop
endfacet
facet normal -0.5712646246981277 0.820765940185451 0
outer loop
vertex -6.12106 7.90776 -2.5
vertex -6.12106 7.90776 2.5
vertex -5.28964 8.48644 -2.5
endloop
endfacet
facet normal -0.5712646246981277 0.820765940185451 0
outer loop
vertex -5.28964 8.48644 -2.5
vertex -6.12106 7.90776 2.5
vertex -5.28964 8.48644 2.5
endloop
endfacet
facet normal -0.485306788964283 0.8743439372381883 0
outer loop
vertex -5.28964 8.48644 -2.5
vertex -5.28964 8.48644 2.5
vertex -4.40394 8.97805 -2.5
endloop
endfacet
facet normal -0.485306788964283 0.8743439372381883 0
outer loop
vertex -4.40394 8.97805 -2.5
vertex -5.28964 8.48644 2.5
vertex -4.40394 8.97805 2.5
endloop
endfacet
facet normal -0.39435055267252495 0.9189600870586676 0
outer loop
vertex -4.40394 8.97805 -2.5
vertex -4.40394 8.97805 2.5
vertex -3.47305 9.37752 -2.5
endloop
endfacet
facet normal -0.39435055267252495 0.9189600870586676 0
outer loop
vertex -3.47305 9.37752 -2.5
vertex -4.40394 8.97805 2.5
vertex -3.47305 9.37752 2.5
endloop
endfacet
facet normal -0.29936527420340614 0.9541385814446032 0
outer loop
vertex -3.47305 9.37752 -2.5
vertex -3.47305 9.37752 2.5
vertex -2.50653 9.68077 -2.5
endloop
endfacet
facet normal -0.29936527420340614 0.9541385814446032 0
outer loop
vertex -2.50653 9.68077 -2.5
vertex -3.47305 9.37752 2.5
vertex -2.50653 9.68077 2.5
endloop
endfacet
facet normal -0.20129609662326395 0.9795304392841692 0
outer loop
vertex -2.50653 9.68077 -2.5
vertex -2.50653 9.68077 2.5
vertex -1.51428 9.88468 -2.5
endloop
endfacet
facet normal -0.20129609662326395 0.9795304392841692 0
outer loop
vertex -1.51428 9.88468 -2.5
vertex -2.50653 9.68077 2.5
vertex -1.51428 9.88468 2.5
endloop
endfacet
facet normal -0.10117591739398024 0.9948685509852477 0
outer loop
vertex -1.51428 9.88468 -2.5
vertex -1.51428 9.88468 2.5
vertex -0.50649 9.98717 -2.5
endloop
endfacet
facet normal -0.10117591739398024 0.9948685509852477 0
outer loop
vertex -0.50649 9.98717 -2.5
vertex -1.51428 9.88468 2.5
vertex -0.50649 9.98717 2.5
endloop
endfacet
facet normal 0 1 0
outer loop
vertex -0.50649 9.98717 -2.5
vertex -0.50649 9.98717 2.5
vertex 0.50649 9.98717 -2.5
endloop
endfacet
facet normal 0 1 0
outer loop
vertex 0.50649 9.98717 -2.5
vertex -0.50649 9.98717 2.5
vertex 0.50649 9.98717 2.5
endloop
endfacet
facet normal 0.10117591739398024 0.9948685509852477 0
outer loop
vertex 0.50649 9.98717 -2.5
vertex 0.50649 9.98717 2.5
vertex 1.51428 9.88468 -2.5
endloop
endfacet
facet normal 0.10117591739398024 0.9948685509852477 0
outer loop
vertex 1.51428 9.88468 -2.5
vertex 0.50649 9.98717 2.5
vertex 1.51428 9.88468 2.5
endloop
endfacet
facet normal 0.20129609662326395 0.9795304392841692 0
outer loop
vertex 1.51428 9.88468 -2.5
vertex 1.51428 9.88468 2.5
vertex 2.50653 9.68077 -2.5
endloop
endfacet
facet normal 0.20129609662326395 0.9795304392841692 0
outer loop
vertex 2.50653 9.68077 -2.5
vertex 1.51428 9.88468 2.5
vertex 2.50653 9.68077 2.5
endloop
endfacet
facet normal 0.29936527420340614 0.9541385814446032 0
outer loop
vertex 2.50653 9.68077 -2.5
vertex 2.50653 9.68077 2.5
vertex 3.47305 9.37752 -2.5
endloop
endfacet
facet normal 0.29936527420340614 0.9541385814446032 0
outer loop
vertex 3.47305 9.37752 -2.5
vertex 2.50653 9.68077 2.5
vertex 3.47305 9.37752 2.5
endloop
endfacet
facet normal 0.39435055267252495 0.9189600870586676 0
outer loop
vertex 3.47305 9.37752 -2.5
vertex 3.47305 9.37752 2.5
vertex 4.40394 8.97805 -2.5
endloop
endfacet
facet normal 0.39435055267252495 0.9189600870586676 0
outer loop
vertex 4.40394 8.97805 -2.5
vertex 3.47305 9.37752 2.5
vertex 4.40394 8.97805 2.5
endloop
endfacet
facet normal 0.485306788964283 0.8743439372381883 0
outer loop
vertex 4.40394 8.97805 -2.5
vertex 4.40394 8.97805 2.5
vertex 5.28964 8.48644 -2.5
endloop
endfacet
facet normal 0.485306788964283 0.8743439372381883 0
outer loop
vertex 5.28964 8.48644 -2.5
vertex 4.40394 8.97805 2.5
vertex 5.28964 8.48644 2.5
endloop
endfacet
facet normal 0.5712646246981277 0.820765940185451 0
outer loop
vertex 5.28964 8.48644 -2.5
vertex 5.28964 8.48644 2.5
vertex 6.12106 7.90776 -2.5
endloop
endfacet
facet normal 0.5712646246981277 0.820765940185451 0
outer loop
vertex 6.12106 7.90776 -2.5
vertex 5.28964 8.48644 2.5
vertex 6.12106 7.90776 2.5
endloop
endfacet
facet normal 0.6513724588664768 0.7587581431722761 0
outer loop
vertex 6.12106 7.90776 -2.5
vertex 6.12106 7.90776 2.5
vertex 6.88967 7.24793 -2.5
endloop
endfacet
facet normal 0.6513724588664768 0.7587581431722761 0
outer loop
vertex 6.88967 7.24793 -2.5
vertex 6.12106 7.90776 2.5
vertex 6.88967 7.24793 2.5
endloop
endfacet
facet normal 0.7247970499683982 0.6889624346487312 0
outer loop
vertex 6.88967 7.24793 -2.5
vertex 6.88967 7.24793 2.5
vertex 7.58758 6.51372 -2.5
endloop
endfacet
facet normal 0.7247970499683982 0.6889624346487312 0
outer loop
vertex 7.58758 6.51372 -2.5
vertex 6.88967 7.24793 2.5
vertex 7.58758 6.51372 2.5
endloop
endfacet
facet normal 0.79077626903439 0.6121052951347914 0
outer loop
vertex 7.58758 6.51372 -2.5
vertex 7.58758 6.51372 2.5
vertex 8.20763 5.71268 -2.5
endloop
endfacet
facet normal 0.79077626903439 0.6121052951347914 0
outer loop
vertex 8.20763 5.71268 -2.5
vertex 7.58758 6.51372 2.5
vertex 8.20763 5.71268 2.5
endloop
endfacet
facet normal 0.848639903597774 0.5289709954445148 0
outer loop
vertex 8.20763 5.71268 -2.5
vertex 8.20763 5.71268 2.5
vertex 8.74347 4.85302 -2.5
endloop
endfacet
facet normal 0.848639903597774 0.5289709954445148 0
outer loop
vertex 8.74347 4.85302 -2.5
vertex 8.20763 5.71268 2.5
vertex 8.74347 4.85302 2.5
endloop
endfacet
facet normal 0.8978050968886259 0.4403930153860359 0
outer loop
vertex 8.74347 4.85302 -2.5
vertex 8.74347 4.85302 2.5
vertex 9.18958 3.94356 -2.5
endloop
endfacet
facet normal 0.8978050968886259 0.4403930153860359 0
outer loop
vertex 9.18958 3.94356 -2.5
vertex 8.74347 4.85302 2.5
vertex 9.18958 3.94356 2.5
endloop
endfacet
facet normal 0.9377538811078928 0.34730053047336973 0
outer loop
vertex 9.18958 3.94356 -2.5
vertex 9.18958 3.94356 2.5
vertex 9.54139 2.99363 -2.5
endloop
endfacet
facet normal 0.9377538811078928 0.34730053047336973 0
outer loop
vertex 9.54139 2.99363 -2.5
vertex 9.18958 3.94356 2.5
vertex 9.54139 2.99363 2.5
endloop
endfacet
facet normal 0.9680759900255813 0.2506568920576305 0
outer loop
vertex 9.54139 2.99363 -2.5
vertex 9.54139 2.99363 2.5
vertex 9.7953 2.01299 -2.5
endloop
endfacet
facet normal 0.9680759900255813 0.2506568920576305 0
outer loop
vertex 9.7953 2.01299 -2.5
vertex 9.54139 2.99363 2.5
vertex 9.7953 2.01299 2.5
endloop
endfacet
facet normal 0.9884690704933199 0.1514229067151734 0
outer loop
vertex 9.7953 2.01299 -2.5
vertex 9.7953 2.01299 2.5
vertex 9.94869 1.01168 -2.5
endloop
endfacet
facet normal 0.9884690704933199 0.1514229067151734 0
outer loop
vertex 9.94869 1.01168 -2.5
vertex 9.7953 2.01299 2.5
vertex 9.94869 1.01168 2.5
endloop
endfacet
facet normal 0.9987163375223298 0.0506525139157358 0
outer loop
vertex 9.94869 1.01168 -2.5
vertex 9.94869 1.01168 2.5
vertex 10 0 -2.5
endloop
endfacet
facet normal 0.9987163375223298 0.0506525139157358 0
outer loop
vertex 10 0 -2.5
vertex 9.94869 1.01168 2.5
vertex 10 0 2.5
endloop
endfacet
facet normal 0.9987163375223298 -0.0506525139157358 0
outer loop
vertex 10 0 -2.5
vertex 10 0 2.5
vertex 9.94869 -1.01168 -2.5
endloop
endfacet
facet normal 0.9987163375223298 -0.0506525139157358 0
outer loop
vertex 9.94869 -1.01168 -2.5
vertex 10 0 2.5
vertex 9.94869 -1.01168 2.5
endloop
endfacet
facet normal 0 0 1
outer loop
vertex 10 0 2.5
vertex 9.94869 1.01168 2.5
vertex 9.7953 2.01299 2.5
endloop
endfacet
facet normal 0 0 1
outer loop
vertex 10 0 2.5
vertex 9.7953 2.01299 2.5
vertex 9.54139 2.99363 2.5
endloop
endfacet
facet normal 0 0 1
outer loop
vertex 10 0 2.5
vertex 9.54139 2.99363 2.5
vertex 9.18958 3.94356 2.5
endloop
endfacet
facet normal 0 0 1
outer loop
vertex 10 0 2.5
vertex 9.18958 3.94356 2.5
vertex 8.74347 4.85302 2.5
endloop
endfacet
facet normal 0 0 1
outer loop
vertex 10 0 2.5
vertex 8.74347 4.85302 2.5
vertex 8.20763 5.71268 2.5
endloop
endfacet
facet normal 0 0 1
outer loop
vertex 10 0 2.5
vertex 8.20763 5.71268 2.5
vertex 7.58758 6.51372 2.5
endloop
endfacet
facet normal 0 0 1
outer loop
vertex 10 0 2.5
vertex 7.58758 6.51372 2.5
vertex 6.88967 7.24793 2.5
endloop
endfacet
facet normal 0 0 1
outer loop
vertex 10 0 2.5
vertex 6.88967 7.24793 2.5
vertex 6.12106 7.90776 2.5
endloop
endfacet
facet normal 0 0 1
outer loop
vertex 10 0 2.5
vertex 6.12106 7.90776 2.5
vertex 5.28964 8.48644 2.5
endloop
endfacet
facet normal 0 0 1
outer loop
vertex 10 0 2.5
vertex 5.28964 8.48644 2.5
vertex 4.40394 8.97805 2.5
endloop
endfacet
facet normal 0 0 1
outer loop
vertex 10 0 2.5
vertex 4.40394 8.97805 2.5
vertex 3.47305 9.37752 2.5
endloop
endfacet
facet normal 0 0 1
outer loop
vertex 10 0 2.5
vertex 3.47305 9.37752 2.5
vertex 2.50653 9.68077 2.5
endloop
endfacet
facet normal 0 0 1
outer loop
vertex 10 0 2.5
vertex 2.50653 9.68077 2.5
vertex 1.51428 9.88468 2.5
endloop
endfacet
facet normal 0 0 1
outer loop
vertex 10 0 2.5
vertex 1.51428 9.88468 2.5
vertex 0.50649 9.98717 2.5
endloop
endfacet
facet normal 0 0 1
outer loop
vertex 10 0 2.5
vertex 0.50649 9.98717 2.5
vertex -0.50649 9.98717 2.5
endloop
endfacet
facet normal 0 0 1
outer loop
vertex 10 0 2.5
vertex -0.50649 9.98717 2.5
vertex -1.51428 9.88468 2.5
endloop
endfacet
facet normal 0 0 1
outer loop
vertex 10 0 2.5
vertex -1.51428 9.88468 2.5
vertex -2.50653 9.68077 2.5
endloop
endfacet
facet normal 0 0 1
outer loop
vertex 10 0 2.5
vertex -2.50653 9.68077 2.5
vertex -3.47305 9.37752 2.5
endloop
endfacet
facet normal 0 0 1
outer loop
vertex 10 0 2.5
vertex -3.47305 9.37752 2.5
vertex -4.40394 8.97805 2.5
endloop
endfacet
facet normal 0 0 1
outer loop
vertex 10 0 2.5
vertex -4.40394 8.97805 2.5
vertex -5.28964 8.48644 2.5
endloop
endfacet
facet normal 0 0 1
outer loop
vertex 10 0 2.5
vertex -5.28964 8.48644 2.5
vertex -6.12106 7.90776 2.5
endloop
endfacet
facet normal 0 0 1
outer loop
vertex 10 0 2.5
vertex -6.12106 7.90776 2.5
vertex -6.88967 7.24793 2.5
endloop
endfacet
facet normal 0 0 1
outer loop
vertex 10 0 2.5
vertex -6.88967 7.24793 2.5
vertex -7.58758 6.51372 2.5
endloop
endfacet
facet normal 0 0 1
outer loop
vertex 10 0 2.5
vertex -7.58758 6.51372 2.5
vertex -8.20763 5.71268 2.5
endloop
endfacet
facet normal 0 0 1
outer loop
vertex 10 0 2.5
vertex -8.20763 5.71268 2.5
vertex -8.74347 4.85302 2.5
endloop
endfacet
facet normal 0 0 1
outer loop
vertex 10 0 2.5
vertex -8.74347 4.85302 2.5
vertex -9.18958 3.94356 2.5
endloop
endfacet
facet normal 0 0 1
outer loop
vertex 10 0 2.5
vertex -9.18958 3.94356 2.5
vertex -9.54139 2.99363 2.5
endloop
endfacet
facet normal 0 0 1
outer loop
vertex 10 0 2.5
vertex -9.54139 2.99363 2.5
vertex -9.7953 2.01299 2.5
endloop
endfacet
facet normal 0 0 1
outer loop
vertex 10 0 2.5
vertex -9.7953 2.01299 2.5
vertex -9.94869 1.01168 2.5
endloop
endfacet
facet normal 0 0 1
outer loop
vertex 10 0 2.5
vertex -9.94869 1.01168 2.5
vertex -10 0 2.5
endloop
endfacet
facet normal 0 0 1
outer loop
vertex 10 0 2.5
vertex -10 0 2.5
vertex -9.94869 -1.01168 2.5
endloop
endfacet
facet normal 0 0 1
outer loop
vertex 10 0 2.5
vertex -9.94869 -1.01168 2.5
vertex -9.7953 -2.01299 2.5
endloop
endfacet
facet normal 0 0 1
outer loop
vertex 10 0 2.5
vertex -9.7953 -2.01299 2.5
vertex -9.54139 -2.99363 2.5
endloop
endfacet
facet normal 0 0 1
outer loop
vertex 10 0 2.5
vertex -9.54139 -2.99363 2.5
vertex -9.18958 -3.94356 2.5
endloop
endfacet
facet normal 0 0 1
outer loop
vertex 10 0 2.5
vertex -9.18958 -3.94356 2.5
vertex -8.74347 -4.85302 2.5
endloop
endfacet
facet normal 0 0 1
outer loop
vertex 10 0 2.5
vertex -8.74347 -4.85302 2.5
vertex -8.20763 -5.71268 2.5
endloop
endfacet
facet normal 0 0 1
outer loop
vertex 10 0 2.5
vertex -8.20763 -5.71268 2.5
vertex -7.58758 -6.51372 2.5
endloop
endfacet
facet normal 0 0 1
outer loop
vertex 10 0 2.5
vertex -7.58758 -6.51372 2.5
vertex -6.88967 -7.24793 2.5
endloop
endfacet
facet normal 0 0 1
outer loop
vertex 10 0 2.5
vertex -6.88967 -7.24793 2.5
vertex -6.12106 -7.90776 2.5
endloop
endfacet
facet normal 0 0 1
outer loop
vertex 10 0 2.5
vertex -6.12106 -7.90776 2.5
vertex -5.28964 -8.48644 2.5
endloop
endfacet
facet normal 0 0 1
outer loop
vertex 10 0 2.5
vertex -5.28964 -8.48644 2.5
vertex -4.40394 -8.97805 2.5
endloop
endfacet
facet normal 0 0 1
outer loop
vertex 10 0 2.5
vertex -4.40394 -8.97805 2.5
vertex -3.47305 -9.37752 2.5
endloop
endfacet
facet normal 0 0 1
outer loop
vertex 10 0 2.5
vertex -3.47305 -9.37752 2.5
vertex -2.50653 -9.68077 2.5
endloop
endfacet
facet normal 0 0 1
outer loop
vertex 10 0 2.5
vertex -2.50653 -9.68077 2.5
vertex -1.51428 -9.88468 2.5
endloop
endfacet
facet normal 0 0 1
outer loop
vertex 10 0 2.5
vertex -1.51428 -9.88468 2.5
vertex -0.50649 -9.98717 2.5
endloop
endfacet
facet normal 0 0 1
outer loop
vertex 10 0 2.5
vertex -0.50649 -9.98717 2.5
vertex 0.50649 -9.98717 2.5
endloop
endfacet
facet normal 0 0 1
outer loop
vertex 10 0 2.5
vertex 0.50649 -9.98717 2.5
vertex 1.51428 -9.88468 2.5
endloop
endfacet
facet normal 0 0 1
outer loop
vertex 10 0 2.5
vertex 1.51428 -9.88468 2.5
vertex 2.50653 -9.68077 2.5
endloop
endfacet
facet normal 0 0 1
outer loop
vertex 10 0 2.5
vertex 2.50653 -9.68077 2.5
vertex 3.47305 -9.37752 2.5
endloop
endfacet
facet normal 0 0 1
outer loop
vertex 10 0 2.5
vertex 3.47305 -9.37752 2.5
vertex 4.40394 -8.97805 2.5
endloop
endfacet
facet normal 0 0 1
outer loop
vertex 10 0 2.5
vertex 4.40394 -8.97805 2.5
vertex 5.28964 -8.48644 2.5
endloop
endfacet
facet normal 0 0 1
outer loop
vertex 10 0 2.5
vertex 5.28964 -8.48644 2.5
vertex 6.12106 -7.90776 2.5
endloop
endfacet
facet normal 0 0 1
outer loop
vertex 10 0 2.5
vertex 6.12106 -7.90776 2.5
vertex 6.88967 -7.24793 2.5
endloop
endfacet
facet normal 0 0 1
outer loop
vertex 10 0 2.5
vertex 6.88967 -7.24793 2.5
vertex 7.58758 -6.51372 2.5
endloop
endfacet
facet normal 0 0 1
outer loop
vertex 10 0 2.5
vertex 7.58758 -6.51372 2.5
vertex 8.20763 -5.71268 2.5
endloop
endfacet
facet normal 0 0 1
outer loop
vertex 10 0 2.5
vertex 8.20763 -5.71268 2.5
vertex 8.74347 -4.85302 2.5
endloop
endfacet
facet normal 0 0 1
outer loop
vertex 10 0 2.5
vertex 8.74347 -4.85302 2.5
vertex 9.18958 -3.94356 2.5
endloop
endfacet
facet normal 0 0 1
outer loop
vertex 10 0 2.5
vertex 9.18958 -3.94356 2.5
vertex 9.54139 -2.99363 2.5
endloop
endfacet
facet normal 0 0 1
outer loop
vertex 10 0 2.5
vertex 9.54139 -2.99363 2.5
vertex 9.7953 -2.01299 2.5
endloop
endfacet
facet normal 0 0 1
outer loop
vertex 10 0 2.5
vertex 9.7953 -2.01299 2.5
vertex 9.94869 -1.01168 2.5
endloop
endfacet
facet normal 0 0 -1
outer loop
vertex 9.94869 -1.01168 -2.5
vertex 9.7953 -2.01299 -2.5
vertex 9.54139 -2.99363 -2.5
endloop
endfacet
facet normal 0 0 -1
outer loop
vertex 9.94869 -1.01168 -2.5
vertex 9.54139 -2.99363 -2.5
vertex 9.18958 -3.94356 -2.5
endloop
endfacet
facet normal 0 0 -1
outer loop
vertex 9.94869 -1.01168 -2.5
vertex 9.18958 -3.94356 -2.5
vertex 8.74347 -4.85302 -2.5
endloop
endfacet
facet normal 0 0 -1
outer loop
vertex 9.94869 -1.01168 -2.5
vertex 8.74347 -4.85302 -2.5
vertex 8.20763 -5.71268 -2.5
endloop
endfacet
facet normal 0 0 -1
outer loop
vertex 9.94869 -1.01168 -2.5
vertex 8.20763 -5.71268 -2.5
vertex 7.58758 -6.51372 -2.5
endloop
endfacet
facet normal 0 0 -1
outer loop
vertex 9.94869 -1.01168 -2.5
vertex 7.58758 -6.51372 -2.5
vertex 6.88967 -7.24793 -2.5
endloop
endfacet
facet normal 0 0 -1
outer loop
vertex 9.94869 -1.01168 -2.5
vertex 6.88967 -7.24793 -2.5
vertex 6.12106 -7.90776 -2.5
endloop
endfacet
facet normal 0 0 -1
outer loop
vertex 9.94869 -1.01168 -2.5
vertex 6.12106 -7.90776 -2.5
vertex 5.28964 -8.48644 -2.5
endloop
endfacet
facet normal 0 0 -1
outer loop
vertex 9.94869 -1.01168 -2.5
vertex 5.28964 -8.48644 -2.5
vertex 4.40394 -8.97805 -2.5
endloop
endfacet
facet normal 0 0 -1
outer loop
vertex 9.94869 -1.01168 -2.5
vertex 4.40394 -8.97805 -2.5
vertex 3.47305 -9.37752 -2.5
endloop
endfacet
facet normal 0 0 -1
outer loop
vertex 9.94869 -1.01168 -2.5
vertex 3.47305 -9.37752 -2.5
vertex 2.50653 -9.68077 -2.5
endloop
endfacet
facet normal 0 0 -1
outer loop
vertex 9.94869 -1.01168 -2.5
vertex 2.50653 -9.68077 -2.5
vertex 1.51428 -9.88468 -2.5
endloop
endfacet
facet normal 0 0 -1
outer loop
vertex 9.94869 -1.01168 -2.5
vertex 1.51428 -9.88468 -2.5
vertex 0.50649 -9.98717 -2.5
endloop
endfacet
facet normal 0 0 -1
outer loop
vertex 9.94869 -1.01168 -2.5
vertex 0.50649 -9.98717 -2.5
vertex -0.50649 -9.98717 -2.5
endloop
endfacet
facet normal 0 0 -1
outer loop
vertex 9.94869 -1.01168 -2.5
vertex -0.50649 -9.98717 -2.5
vertex -1.51428 -9.88468 -2.5
endloop
endfacet
facet normal 0 0 -1
outer loop
vertex 9.94869 -1.01168 -2.5
vertex -1.51428 -9.88468 -2.5
vertex -2.50653 -9.68077 -2.5
endloop
endfacet
facet normal 0 0 -1
outer loop
vertex 9.94869 -1.01168 -2.5
vertex -2.50653 -9.68077 -2.5
vertex -3.47305 -9.37752 -2.5
endloop
endfacet
facet normal 0 0 -1
outer loop
vertex 9.94869 -1.01168 -2.5
vertex -3.47305 -9.37752 -2.5
vertex -4.40394 -8.97805 -2.5
endloop
endfacet
facet normal 0 0 -1
outer loop
vertex 9.94869 -1.01168 -2.5
vertex -4.40394 -8.97805 -2.5
vertex -5.28964 -8.48644 -2.5
endloop
endfacet
facet normal 0 0 -1
outer loop
vertex 9.94869 -1.01168 -2.5
vertex -5.28964 -8.48644 -2.5
vertex -6.12106 -7.90776 -2.5
endloop
endfacet
facet normal 0 0 -1
outer loop
vertex 9.94869 -1.01168 -2.5
vertex -6.12106 -7.90776 -2.5
vertex -6.88967 -7.24793 -2.5
endloop
endfacet
facet normal 0 0 -1
outer loop
vertex 9.94869 -1.01168 -2.5
vertex -6.88967 -7.24793 -2.5
vertex -7.58758 -6.51372 -2.5
endloop
endfacet
facet normal 0 0 -1
outer loop
vertex 9.94869 -1.01168 -2.5
vertex -7.58758 -6.51372 -2.5
vertex -8.20763 -5.71268 -2.5
endloop
endfacet
facet normal 0 0 -1
outer loop
vertex 9.94869 -1.01168 -2.5
vertex -8.20763 -5.71268 -2.5
vertex -8.74347 -4.85302 -2.5
endloop
endfacet
facet normal 0 0 -1
outer loop
vertex 9.94869 -1.01168 -2.5
vertex -8.74347 -4.85302 -2.5
vertex -9.18958 -3.94356 -2.5
endloop
endfacet
facet normal 0 0 -1
outer loop
vertex 9.94869 -1.01168 -2.5
vertex -9.18958 -3.94356 -2.5
vertex -9.54139 -2.99363 -2.5
endloop
endfacet
facet normal 0 0 -1
outer loop
vertex 9.94869 -1.01168 -2.5
vertex -9.54139 -2.99363 -2.5
vertex -9.7953 -2.01299 -2.5
endloop
endfacet
facet normal 0 0 -1
outer loop
vertex 9.94869 -1.01168 -2.5
vertex -9.7953 -2.01299 -2.5
vertex -9.94869 -1.01168 -2.5
endloop
endfacet
facet normal 0 0 -1
outer loop
vertex 9.94869 -1.01168 -2.5
vertex -9.94869 -1.01168 -2.5
vertex -10 0 -2.5
endloop
endfacet
facet normal 0 0 -1
outer loop
vertex 9.94869 -1.01168 -2.5
vertex -10 0 -2.5
vertex -9.94869 1.01168 -2.5
endloop
endfacet
facet normal 0 0 -1
outer loop
vertex 9.94869 -1.01168 -2.5
vertex -9.94869 1.01168 -2.5
vertex -9.7953 2.01299 -2.5
endloop
endfacet
facet normal 0 0 -1
outer loop
vertex 9.94869 -1.01168 -2.5
vertex -9.7953 2.01299 -2.5
vertex -9.54139 2.99363 -2.5
endloop
endfacet
facet normal 0 0 -1
outer loop
vertex 9.94869 -1.01168 -2.5
vertex -9.54139 2.99363 -2.5
vertex -9.18958 3.94356 -2.5
endloop
endfacet
facet normal 0 0 -1
outer loop
vertex 9.94869 -1.01168 -2.5
vertex -9.18958 3.94356 -2.5
vertex -8.74347 4.85302 -2.5
endloop
endfacet
facet normal 0 0 -1
outer loop
vertex 9.94869 -1.01168 -2.5
vertex -8.74347 4.85302 -2.5
vertex -8.20763 5.71268 -2.5
endloop
endfacet
facet normal 0 0 -1
outer loop
vertex 9.94869 -1.01168 -2.5
vertex -8.20763 5.71268 -2.5
vertex -7.58758 6.51372 -2.5
endloop
endfacet
facet normal 0 0 -1
outer loop
vertex 9.94869 -1.01168 -2.5
vertex -7.58758 6.51372 -2.5
vertex -6.88967 7.24793 -2.5
endloop
endfacet
facet normal 0 0 -1
outer loop
vertex 9.94869 -1.01168 -2.5
vertex -6.88967 7.24793 -2.5
vertex -6.12106 7.90776 -2.5
endloop
endfacet
facet normal 0 0 -1
outer loop
vertex 9.94869 -1.01168 -2.5
vertex -6.12106 7.90776 -2.5
vertex -5.28964 8.48644 -2.5
endloop
endfacet
facet normal 0 0 -1
outer loop
vertex 9.94869 -1.01168 -2.5
vertex -5.28964 8.48644 -2.5
vertex -4.40394 8.97805 -2.5
endloop
endfacet
facet normal 0 0 -1
outer loop
vertex 9.94869 -1.01168 -2.5
vertex -4.40394 8.97805 -2.5
vertex -3.47305 9.37752 -2.5
endloop
endfacet
facet normal 0 0 -1
outer loop
vertex 9.94869 -1.01168 -2.5
vertex -3.47305 9.37752 -2.5
vertex -2.50653 9.68077 -2.5
endloop
endfacet
facet normal 0 0 -1
outer loop
vertex 9.94869 -1.01168 -2.5
vertex -2.50653 9.68077 -2.5
vertex -1.51428 9.88468 -2.5
endloop
endfacet
facet normal 0 0 -1
outer loop
vertex 9.94869 -1.01168 -2.5
vertex -1.51428 9.88468 -2.5
vertex -0.50649 9.98717 -2.5
endloop
endfacet
facet normal 0 0 -1
outer loop
vertex 9.94869 -1.01168 -2.5
vertex -0.50649 9.98717 -2.5
vertex 0.50649 9.98717 -2.5
endloop
endfacet
facet normal 0 0 -1
outer loop
vertex 9.94869 -1.01168 -2.5
vertex 0.50649 9.98717 -2.5
vertex 1.51428 9.88468 -2.5
endloop
endfacet
facet normal 0 0 -1
outer loop
vertex 9.94869 -1.01168 -2.5
vertex 1.51428 9.88468 -2.5
vertex 2.50653 9.68077 -2.5
endloop
endfacet
facet normal 0 0 -1
outer loop
vertex 9.94869 -1.01168 -2.5
vertex 2.50653 9.68077 -2.5
vertex 3.47305 9.37752 -2.5
endloop
endfacet
facet normal 0 0 -1
outer loop
vertex 9.94869 -1.01168 -2.5
vertex 3.47305 9.37752 -2.5
vertex 4.40394 8.97805 -2.5
endloop
endfacet
facet normal 0 0 -1
outer loop
vertex 9.94869 -1.01168 -2.5
vertex 4.40394 8.97805 -2.5
vertex 5.28964 8.48644 -2.5
endloop
endfacet
facet normal 0 0 -1
outer loop
vertex 9.94869 -1.01168 -2.5
vertex 5.28964 8.48644 -2.5
vertex 6.12106 7.90776 -2.5
endloop
endfacet
facet normal 0 0 -1
outer loop
vertex 9.94869 -1.01168 -2.5
vertex 6.12106 7.90776 -2.5
vertex 6.88967 7.24793 -2.5
endloop
endfacet
facet normal 0 0 -1
outer loop
vertex 9.94869 -1.01168 -2.5
vertex 6.88967 7.24793 -2.5
vertex 7.58758 6.51372 -2.5
endloop
endfacet
facet normal 0 0 -1
outer loop
vertex 9.94869 -1.01168 -2.5
vertex 7.58758 6.51372 -2.5
vertex 8.20763 5.71268 -2.5
endloop
endfacet
facet normal 0 0 -1
outer loop
vertex 9.94869 -1.01168 -2.5
vertex 8.20763 5.71268 -2.5
vertex 8.74347 4.85302 -2.5
endloop
endfacet
facet normal 0 0 -1
outer loop
vertex 9.94869 -1.01168 -2.5
vertex 8.74347 4.85302 -2.5
vertex 9.18958 3.94356 -2.5
endloop
endfacet
facet normal 0 0 -1
outer loop
vertex 9.94869 -1.01168 -2.5
vertex 9.18958 3.94356 -2.5
vertex 9.54139 2.99363 -2.5
endloop
endfacet
facet normal 0 0 -1
outer loop
vertex 9.94869 -1.01168 -2.5
vertex 9.54139 2.99363 -2.5
vertex 9.7953 2.01299 -2.5
endloop
endfacet
facet normal 0 0 -1
outer loop
vertex 9.94869 -1.01168 -2.5
vertex 9.7953 2.01299 -2.5
vertex 9.94869 1.01168 -2.5
endloop
endfacet
facet normal 0 0 -1
outer loop
vertex 9.94869 -1.01168 -2.5
vertex 9.94869 1.01168 -2.5
vertex 10 0 -2.5
endloop
endfacet
facet normal 0 0 1
outer loop
vertex 15 5 5
vertex 5 5 5
vertex 5 -5 5
endloop
endfacet
facet normal 0 0 1
outer loop
vertex 15 5 5
vertex 5 -5 5
vertex 15 -5 5
endloop
endfacet
facet normal 0 0 -1
outer loop
vertex 15 -5 -5
vertex 5 -5 -5
vertex 5 5 -5
endloop
endfacet
facet normal 0 0 -1
outer loop
vertex 15 -5 -5
vertex 5 5 -5
vertex 15 5 -5
endloop
endfacet
facet normal 0 -1 0
outer loop
vertex 15 -5 2.5
vertex 15 -5 5
vertex 12.5 -5 2.5
endloop
endfacet
facet normal 0 -1 0
outer loop
vertex 12.5 -5 2.5
vertex 15 -5 5
vertex 5 -5 5
endloop
endfacet
facet normal 0 -1 0
outer loop
vertex 12.5 -5 2.5
vertex 5 -5 5
vertex 5 -5 2.5
endloop
endfacet
facet normal 0 -1 0
outer loop
vertex 7.5 -5 -2.5
vertex 5 -5 -5
vertex 15 -5 -5
endloop
endfacet
facet normal 0 -1 0
outer loop
vertex 7.5 -5 -2.5
vertex 15 -5 -5
vertex 15 -5 -2.5
endloop
endfacet
facet normal 0 -1 0
outer loop
vertex 5 -5 -2.5
vertex 5 -5 -5
vertex 7.5 -5 -2.5
endloop
endfacet
facet normal 0 -1 0
outer loop
vertex 11.57101 -5 1.57101
vertex 11.57101 -5 -2.5
vertex 15 -5 -2.5
endloop
endfacet
facet normal 0 -1 0
outer loop
vertex 11.57101 -5 1.57101
vertex 15 -5 -2.5
vertex 15 -5 2.5
endloop
endfacet
facet normal 0 -1 0
outer loop
vertex 11.57101 -5 1.57101
vertex 15 -5 2.5
vertex 12.5 -5 2.5
endloop
endfacet
facet normal 0 -1 0
outer loop
vertex 11.57101 -5 1.57101
vertex 12.5 -5 2.5
vertex 11.57101 -5 2.5
endloop
endfacet
facet normal 0 -1 0
outer loop
vertex 8.67137 -5 -1.32863
vertex 8.67137 -5 -2.5
vertex 11.57101 -5 -2.5
endloop
endfacet
facet normal 0 -1 0
outer loop
vertex 8.67137 -5 -1.32863
vertex 11.57101 -5 -2.5
vertex 11.57101 -5 1.57101
endloop
endfacet
facet normal 0 -1 0
outer loop
vertex 8.67137 -5 -1.32863
vertex 11.57101 -5 1.57101
vertex 11.57101 -5 2.5
endloop
endfacet
facet normal 0 -1 0
outer loop
vertex 8.67137 -5 -1.32863
vertex 11.57101 -5 2.5
vertex 8.67137 -5 2.5
endloop
endfacet
facet normal 0 -1 0
outer loop
vertex 8.65185 -5 -1.34815
vertex 8.65185 -5 -2.5
vertex 8.67137 -5 -2.5
endloop
endfacet
facet normal 0 -1 0
outer loop
vertex 8.65185 -5 -1.34815
vertex 8.67137 -5 -2.5
vertex 8.67137 -5 -1.32863
endloop
endfacet
facet normal 0 -1 0
outer loop
vertex 8.65185 -5 -1.34815
vertex 8.67137 -5 -1.32863
vertex 8.67137 -5 2.5
endloop
endfacet
facet normal 0 -1 0
outer loop
vertex 8.65185 -5 -1.34815
vertex 8.67137 -5 2.5
vertex 8.65185 -5 2.5
endloop
endfacet
facet normal -1 0 0
outer loop
vertex 5 -5 2.5
vertex 5 -5 5
vertex 5 -2.5 2.5
endloop
endfacet
facet normal -1 0 0
outer loop
vertex 5 -2.5 2.5
vertex 5 -5 5
vertex 5 5 5
endloop
endfacet
facet normal -1 0 0
outer loop
vertex 5 -2.5 2.5
vertex 5 5 5
vertex 5 5 2.5
endloop
endfacet
facet normal -1 0 0
outer loop
vertex 5 2.5 -2.5
vertex 5 5 -5
vertex 5 -5 -5
endloop
endfacet
facet normal -1 0 0
outer loop
vertex 5 2.5 -2.5
vertex 5 -5 -5
vertex 5 -5 -2.5
endloop
endfacet
facet normal -1 0 0
outer loop
vertex 5 5 -2.5
vertex 5 5 -5
vertex 5 2.5 -2.5
endloop
endfacet
facet normal 1 0 0
outer loop
vertex 15 5 2.5
vertex 15 5 5
vertex 15 2.5 2.5
endloop
endfacet
facet normal 1 0 0
outer loop
vertex 15 2.5 2.5
vertex 15 5 5
vertex 15 -5 5
endloop
endfacet
facet normal 1 0 0
outer loop
vertex 15 2.5 2.5
vertex 15 -5 5
vertex 15 -5 2.5
endloop
endfacet
facet normal 1 0 0
outer loop
vertex 15 -2.5 -2.5
vertex 15 -5 -5
vertex 15 5 -5
endloop
endfacet
facet normal 1 0 0
outer loop
vertex 15 -2.5 -2.5
vertex 15 5 -5
vertex 15 5 -2.5
endloop
endfacet
facet normal 1 0 0
outer loop
vertex 15 -5 -2.5
vertex 15 -5 -5
vertex 15 -2.5 -2.5
endloop
endfacet
facet normal 1 0 0
outer loop
vertex 15 -5 -2.5
vertex 15 -3.09675 -2.5
vertex 15 -3.09675 2.5
endloop
endfacet
facet normal 1 0 0
outer loop
vertex 15 -5 -2.5
vertex 15 -3.09675 2.5
vertex 15 -5 2.5
endloop
endfacet
facet normal 1 0 0
outer loop
vertex 15 2.5 2.5
vertex 15 -2.5 -2.5
vertex 15 5 -2.5
endloop
endfacet
facet normal 1 0 0
outer loop
vertex 15 2.5 2.5
vertex 15 5 -2.5
vertex 15 5 2.5
endloop
endfacet
facet normal 1 0 0
outer loop
vertex 15 -3.09675 -2.5
vertex 15 -2.5 -2.5
vertex 15 2.5 2.5
endloop
endfacet
facet normal 1 0 0
outer loop
vertex 15 -3.09675 -2.5
vertex 15 2.5 2.5
vertex 15 -3.09675 2.5
endloop
endfacet
facet normal 0 1 0
outer loop
vertex 5 5 2.5
vertex 5 5 5
vertex 7.5 5 2.5
endloop
endfacet
facet normal 0 1 0
outer loop
vertex 7.5 5 2.5
vertex 5 5 5
vertex 15 5 5
endloop
endfacet
facet normal 0 1 0
outer loop
vertex 7.5 5 2.5
vertex 15 5 5
vertex 15 5 2.5
endloop
endfacet
facet normal 0 1 0
outer loop
vertex 12.5 5 -2.5
vertex 15 5 -5
vertex 5 5 -5
endloop
endfacet
facet normal 0 1 0
outer loop
vertex 12.5 5 -2.5
vertex 5 5 -5
vertex 5 5 -2.5
endloop
endfacet
facet normal 0 1 0
outer loop
vertex 15 5 -2.5
vertex 15 5 -5
vertex 12.5 5 -2.5
endloop
endfacet
facet normal 0 1 0
outer loop
vertex 15 5 -2.5
vertex 13.5766 5 -2.5
vertex 13.5766 5 2.5
endloop
endfacet
facet normal 0 1 0
outer loop
vertex 15 5 -2.5
vertex 13.5766 5 2.5
vertex 15 5 2.5
endloop
endfacet
facet normal 0 1 0
outer loop
vertex 10.29875 5 -0.29875
vertex 12.5 5 -2.5
vertex 10.29875 5 -2.5
endloop
endfacet
facet normal 0 1 0
outer loop
vertex 12.5 5 -2.5
vertex 10.29875 5 -0.29875
vertex 10.29875 5 2.5
endloop
endfacet
facet normal 0 1 0
outer loop
vertex 12.5 5 -2.5
vertex 10.29875 5 2.5
vertex 13.5766 5 2.5
endloop
endfacet
facet normal 0 1 0
outer loop
vertex 12.5 5 -2.5
vertex 13.5766 5 2.5
vertex 13.5766 5 -2.5
endloop
endfacet
facet normal 0 1 0
outer loop
vertex 10.29875 5 -2.5
vertex 9.02648 5 -2.5
vertex 9.02648 5 0.97352
endloop
endfacet
facet normal 0 1 0
outer loop
vertex 10.29875 5 -2.5
vertex 9.02648 5 0.97352
vertex 10.29875 5 -0.29875
endloop
endfacet
facet normal 0 1 0
outer loop
vertex 9.02648 5 0.97352
vertex 9.02648 5 2.5
vertex 10.29875 5 2.5
endloop
endfacet
facet normal 0 1 0
outer loop
vertex 9.02648 5 0.97352
vertex 10.29875 5 2.5
vertex 10.29875 5 -0.29875
endloop
endfacet
facet normal 0 1 0
outer loop
vertex 8.79832 5 -2.5
vertex 8.79832 5 1.20168
vertex 9.02648 5 0.97352
endloop
endfacet
facet normal 0 1 0
outer loop
vertex 8.79832 5 -2.5
vertex 9.02648 5 0.97352
vertex 9.02648 5 -2.5
endloop
endfacet
facet normal 0 1 0
outer loop
vertex 8.79832 5 1.20168
vertex 8.79832 5 2.5
vertex 9.02648 5 2.5
endloop
endfacet
facet normal 0 1 0
outer loop
vertex 8.79832 5 1.20168
vertex 9.02648 5 2.5
vertex 9.02648 5 0.97352
endloop
endfacet
facet normal 0 1 0
outer loop
vertex 8.65185 5 -2.5
vertex 8.65185 5 1.34815
vertex 8.79832 5 1.20168
endloop
endfacet
facet normal 0 1 0
outer loop
vertex 8.65185 5 -2.5
vertex 8.79832 5 1.20168
vertex 8.79832 5 -2.5
endloop
endfacet
facet normal 0 1 0
outer loop
vertex 8.65185 5 1.34815
vertex 8.65185 5 2.5
vertex 8.79832 5 2.5
endloop
endfacet
facet normal 0 1 0
outer loop
vertex 8.65185 5 1.34815
vertex 8.79832 5 2.5
vertex 8.79832 5 1.20168
endloop
endfacet
facet normal 0 0 -1
outer loop
vertex 9.18958 -3.94356 2.5
vertex 8.74347 -4.85302 2.5
vertex 8.65185 -5 2.5
endloop
endfacet
facet normal 0 0 -1
outer loop
vertex 9.18958 -3.94356 2.5
vertex 8.65185 -5 2.5
vertex 5 -5 2.5
endloop
endfacet
facet normal 0 0 -1
outer loop
vertex 9.18958 -3.94356 2.5
vertex 5 -5 2.5
vertex 5 5 2.5
endloop
endfacet
facet normal 0 0 -1
outer loop
vertex 9.18958 -3.94356 2.5
vertex 5 5 2.5
vertex 8.65185 5 2.5
endloop
endfacet
facet normal 0 0 -1
outer loop
vertex 9.18958 -3.94356 2.5
vertex 8.65185 5 2.5
vertex 8.74347 4.85302 2.5
endloop
endfacet
facet normal 0 0 -1
outer loop
vertex 9.18958 -3.94356 2.5
vertex 8.74347 4.85302 2.5
vertex 9.18958 3.94356 2.5
endloop
endfacet
facet normal 0 0 -1
outer loop
vertex 9.18958 -3.94356 2.5
vertex 9.18958 3.94356 2.5
vertex 9.54139 2.99363 2.5
endloop
endfacet
facet normal 0 0 -1
outer loop
vertex 9.18958 -3.94356 2.5
vertex 9.54139 2.99363 2.5
vertex 9.7953 2.01299 2.5
endloop
endfacet
facet normal 0 0 -1
outer loop
vertex 9.18958 -3.94356 2.5
vertex 9.7953 2.01299 2.5
vertex 9.94869 1.01168 2.5
endloop
endfacet
facet normal 0 0 -1
outer loop
vertex 9.18958 -3.94356 2.5
vertex 9.94869 1.01168 2.5
vertex 10 0 2.5
endloop
endfacet
facet normal 0 0 -1
outer loop
vertex 9.18958 -3.94356 2.5
vertex 10 0 2.5
vertex 9.94869 -1.01168 2.5
endloop
endfacet
facet normal 0 0 -1
outer loop
vertex 9.18958 -3.94356 2.5
vertex 9.94869 -1.01168 2.5
vertex 9.7953 -2.01299 2.5
endloop
endfacet
facet normal 0 0 -1
outer loop
vertex 9.18958 -3.94356 2.5
vertex 9.7953 -2.01299 2.5
vertex 9.54139 -2.99363 2.5
endloop
endfacet
facet normal 0 0 1
outer loop
vertex 9.54139 2.99363 -2.5
vertex 9.18958 3.94356 -2.5
vertex 8.74347 4.85302 -2.5
endloop
endfacet
facet normal 0 0 1
outer loop
vertex 9.54139 2.99363 -2.5
vertex 8.74347 4.85302 -2.5
vertex 8.65185 5 -2.5
endloop
endfacet
facet normal 0 0 1
outer loop
vertex 9.54139 2.99363 -2.5
vertex 8.65185 5 -2.5
vertex 5 5 -2.5
endloop
endfacet
facet normal 0 0 1
outer loop
vertex 9.54139 2.99363 -2.5
vertex 5 5 -2.5
vertex 5 -5 -2.5
endloop
endfacet
facet normal 0 0 1
outer loop
vertex 9.54139 2.99363 -2.5
vertex 5 -5 -2.5
vertex 8.65185 -5 -2.5
endloop
endfacet
facet normal 0 0 1
outer loop
vertex 9.54139 2.99363 -2.5
vertex 8.65185 -5 -2.5
vertex 8.74347 -4.85302 -2.5
endloop
endfacet
facet normal 0 0 1
outer loop
vertex 9.54139 2.99363 -2.5
vertex 8.74347 -4.85302 -2.5
vertex 9.18958 -3.94356 -2.5
endloop
endfacet
facet normal 0 0 1
outer loop
vertex 9.54139 2.99363 -2.5
vertex 9.18958 -3.94356 -2.5
vertex 9.54139 -2.99363 -2.5
endloop
endfacet
facet normal 0 0 1
outer loop
vertex 9.54139 2.99363 -2.5
vertex 9.54139 -2.99363 -2.5
vertex 9.7953 -2.01299 -2.5
endloop
endfacet
facet normal 0 0 1
outer loop
vertex 9.54139 2.99363 -2.5
vertex 9.7953 -2.01299 -2.5
vertex 9.94869 -1.01168 -2.5
endloop
endfacet
facet normal 0 0 1
outer loop
vertex 9.54139 2.99363 -2.5
vertex 9.94869 -1.01168 -2.5
vertex 10 0 -2.5
endloop
endfacet
facet normal 0 0 1
outer loop
vertex 9.54139 2.99363 -2.5
vertex 10 0 -2.5
vertex 9.94869 1.01168 -2.5
endloop
endfacet
facet normal 0 0 1
outer loop
vertex 9.54139 2.99363 -2.5
vertex 9.94869 1.01168 -2.5
vertex 9.7953 2.01299 -2.5
endloop
endfacet
facet normal -0.8978050968886259 0.4403930153860359 0
outer loop
vertex 8.74347 -4.85302 -2.5
vertex 9.18958 -3.94356 2.5
vertex 9.18958 -3.94356 -2.5
endloop
endfacet
facet normal -0.8978050968886259 0.4403930153860359 0
outer loop
vertex 8.74347 -4.85302 2.5
vertex 9.18958 -3.94356 2.5
vertex 8.74347 -4.85302 -2.5
endloop
endfacet
facet normal -0.9377538811078928 -0.34730053047336973 0
outer loop
vertex 9.54139 2.99363 -2.5
vertex 9.18958 3.94356 2.5
vertex 9.18958 3.94356 -2.5
endloop
endfacet
facet normal -0.9377538811078928 -0.34730053047336973 0
outer loop
vertex 9.54139 2.99363 2.5
vertex 9.18958 3.94356 2.5
vertex 9.54139 2.99363 -2.5
endloop
endfacet
facet normal -0.9884690704933199 -0.1514229067151734 0
outer loop
vertex 9.94869 1.01168 -2.5
vertex 9.7953 2.01299 2.5
vertex 9.7953 2.01299 -2.5
endloop
endfacet
facet normal -0.9884690704933199 -0.1514229067151734 0
outer loop
vertex 9.94869 1.01168 2.5
vertex 9.7953 2.01299 2.5
vertex 9.94869 1.01168 -2.5
endloop
endfacet
facet normal -0.9680759900255813 -0.2506568920576305 0
outer loop
vertex 9.7953 2.01299 -2.5
vertex 9.54139 2.99363 2.5
vertex 9.54139 2.99363 -2.5
endloop
endfacet
facet normal -0.9680759900255813 -0.2506568920576305 0
outer loop
vertex 9.7953 2.01299 2.5
vertex 9.54139 2.99363 2.5
vertex 9.7953 2.01299 -2.5
endloop
endfacet
facet normal -0.9884690704933199 0.1514229067151734 0
outer loop
vertex 9.7953 -2.01299 -2.5
vertex 9.94869 -1.01168 2.5
vertex 9.94869 -1.01168 -2.5
endloop
endfacet
facet normal -0.9884690704933199 0.1514229067151734 0
outer loop
vertex 9.7953 -2.01299 2.5
vertex 9.94869 -1.01168 2.5
vertex 9.7953 -2.01299 -2.5
endloop
endfacet
facet normal -0.8978050968886259 -0.4403930153860359 0
outer loop
vertex 9.18958 3.94356 -2.5
vertex 8.74347 4.85302 2.5
vertex 8.74347 4.85302 -2.5
endloop
endfacet
facet normal -0.8978050968886259 -0.4403930153860359 0
outer loop
vertex 9.18958 3.94356 2.5
vertex 8.74347 4.85302 2.5
vertex 9.18958 3.94356 -2.5
endloop
endfacet
facet normal -0.9987163375223298 -0.0506525139157358 0
outer loop
vertex 10 0 -2.5
vertex 9.94869 1.01168 2.5
vertex 9.94869 1.01168 -2.5
endloop
endfacet
facet normal -0.9987163375223298 -0.0506525139157358 0
outer loop
vertex 10 0 2.5
vertex 9.94869 1.01168 2.5
vertex 10 0 -2.5
endloop
endfacet
facet normal -0.9987163375223298 0.0506525139157358 0
outer loop
vertex 9.94869 -1.01168 -2.5
vertex 10 0 2.5
vertex 10 0 -2.5
endloop
endfacet
facet normal -0.9987163375223298 0.0506525139157358 0
outer loop
vertex 9.94869 -1.01168 2.5
vertex 10 0 2.5
vertex 9.94869 -1.01168 -2.5
endloop
endfacet
facet normal -0.9680759900255813 0.2506568920576305 0
outer loop
vertex 9.54139 -2.99363 -2.5
vertex 9.7953 -2.01299 2.5
vertex 9.7953 -2.01299 -2.5
endloop
endfacet
facet normal -0.9680759900255813 0.2506568920576305 0
outer loop
vertex 9.54139 -2.99363 2.5
vertex 9.7953 -2.01299 2.5
vertex 9.54139 -2.99363 -2.5
endloop
endfacet
facet normal -0.9377538811078928 0.34730053047336973 0
outer loop
vertex 9.18958 -3.94356 -2.5
vertex 9.54139 -2.99363 2.5
vertex 9.54139 -2.99363 -2.5
endloop
endfacet
facet normal -0.9377538811078928 0.34730053047336973 0
outer loop
vertex 9.18958 -3.94356 2.5
vertex 9.54139 -2.99363 2.5
vertex 9.18958 -3.94356 -2.5
endloop
endfacet
facet normal -0.8486269810585729 -0.5289917267967547 0
outer loop
vertex 8.65185 5 -1.64513
vertex 8.65185 5 -2.5
vertex 8.74347 4.85302 -2.5
endloop
endfacet
facet normal -0.848626981058573 -0.5289917267967547 0
outer loop
vertex 8.65185 5 2.5
vertex 8.65185 5 -1.64513
vertex 8.74347 4.85302 -2.5
endloop
endfacet
facet normal -0.8486269810585731 -0.5289917267967547 0
outer loop
vertex 8.65185 5 2.5
vertex 8.74347 4.85302 -2.5
vertex 8.74347 4.85302 2.5
endloop
endfacet
facet normal -0.8486269810585731 0.5289917267967547 0
outer loop
vertex 8.65185 -5 1.64513
vertex 8.74347 -4.85302 2.5
vertex 8.74347 -4.85302 -2.5
endloop
endfacet
facet normal -0.848626981058573 0.5289917267967547 0
outer loop
vertex 8.65185 -5 1.64513
vertex 8.74347 -4.85302 -2.5
vertex 8.65185 -5 -2.5
endloop
endfacet
facet normal -0.8486269810585729 0.5289917267967547 0
outer loop
vertex 8.65185 -5 2.5
vertex 8.74347 -4.85302 2.5
vertex 8.65185 -5 1.64513
endloop
endfacet
endsolid JSxCAD
